<svg xmlns="http://www.w3.org/2000/svg" width="800" height="800" viewBox="0 0 512 512"><path d="M404.85 128.61a17.07 17.07 0 0 0-17.08-17.08H124.23a17.08 17.08 0 0 0-17.08 17.08V392.1a17.08 17.08 0 0 0 17.08 17.08l263.54.06a17.08 17.08 0 0 0 17.08-17.08Zm-18 262.63H256v-27.38a7.3 7.3 0 0 1 9.49-7 43 43 0 0 1 5.12 2 27.23 27.23 0 1 0 12.63-51.36c-4.56 0-12.63 3.11-12.63 3.11a43 43 0 0 1-5.11 2 7.3 7.3 0 0 1-9.5-7v-45.23h-45.31a7.31 7.31 0 0 0-7 9.5 42 42 0 0 0 2 5.11s3.1 8.07 3.1 12.63A27.24 27.24 0 1 1 157.45 275a42 42 0 0 0 2-5.12 7.31 7.31 0 0 0-7-9.49h-27.3V129.53H256v27.31a7.31 7.31 0 0 1-9.49 7 42.5 42.5 0 0 1-5.12-2 27.23 27.23 0 1 0-12.63 51.36c4.56 0 12.63-3.1 12.63-3.1a42 42 0 0 1 5.11-2 7.3 7.3 0 0 1 9.5 7v45.31h45.36a7.3 7.3 0 0 0 6.92-9.49 42.5 42.5 0 0 0-2-5.12s-3.1-8.07-3.1-12.63a27.24 27.24 0 1 1 51.36 12.63 42.5 42.5 0 0 0-2 5.12 7.31 7.31 0 0 0 6.93 9.49h27.36Z"/></svg>